<?xml version="1.0" encoding="UTF-8"?>
<svg version="1.1" viewBox="0 0 24 24" xmlns="http://www.w3.org/2000/svg" xmlns:xlink="http://www.w3.org/1999/xlink">
    <g stroke-linecap="round" stroke="none" fill="none" stroke-linejoin="round">
        <path d="M0 0h24v24h-24Z"></path>
        <path stroke="#000" stroke-width="2"
              d="M9 5h-2l-8.74228e-08 1.77636e-15c-1.10457 4.82823e-08-2 .895431-2 2 0 0 0 0 0 0v12l2.30926e-14 3.01992e-07c1.66785e-07 1.10457.895431 2 2 2h10l-8.74228e-08-3.55271e-15c1.10457 4.82823e-08 2-.89543 2-2v-12 0c0-1.10457-.895431-2-2-2h-2"></path>
        <rect width="6" height="4" x="9" y="3" rx="1.10456" ry="0" stroke="#000" stroke-width="2"></rect>
        <line x1="9" x2="9.01" y1="12" y2="12" stroke="#000" stroke-width="2"></line>
        <line x1="13" x2="15" y1="12" y2="12" stroke="#000" stroke-width="2"></line>
        <line x1="9" x2="9.01" y1="16" y2="16" stroke="#000" stroke-width="2"></line>
        <line x1="13" x2="15" y1="16" y2="16" stroke="#000" stroke-width="2"></line>
    </g>
</svg>
